<svg width="24" height="12" viewBox="0 0 24 12" fill="none" xmlns="http://www.w3.org/2000/svg">
<path d="M22 0H9C7.9 0 7 0.830769 7 1.84615V10.1538C7 10.6435 7.21071 11.1131 7.58579 11.4593C7.96086 11.8055 8.46957 12 9 12H22C23.11 12 24 11.1785 24 10.1538V1.84615C24 1.35652 23.7893 0.886947 23.4142 0.540726C23.0391 0.194505 22.5304 0 22 0ZM22 10.1538H9V3.38769L15.5 6.46154L22 3.38769V10.1538ZM15.5 4.90154L9 1.84615H22L15.5 4.90154ZM5 10.1538C5 10.3108 5.03 10.4585 5.05 10.6154H1C0.448 10.6154 0 10.2 0 9.69231C0 9.18462 0.448 8.76923 1 8.76923H5V10.1538ZM3 1.38462H5.05C5.03 1.54154 5 1.68923 5 1.84615V3.23077H3C2.45 3.23077 2 2.81538 2 2.30769C2 1.8 2.45 1.38462 3 1.38462ZM1 6C1 5.49231 1.45 5.07692 2 5.07692H5V6.92308H2C1.45 6.92308 1 6.50769 1 6Z" fill="#2F8DED"/>
</svg>
