<svg width="64" height="64" viewBox="0 0 64 64" fill="none" xmlns="http://www.w3.org/2000/svg">
<path d="M34.6667 45.3333H45.3334V37.3333L58.6667 49.3333L45.3334 61.3333V53.3333H34.6667V45.3333ZM53.3334 10.6666H10.6667C9.25222 10.6666 7.89566 11.2285 6.89547 12.2287C5.89528 13.2289 5.33337 14.5855 5.33337 16V48C5.33337 49.4144 5.89528 50.771 6.89547 51.7712C7.89566 52.7714 9.25222 53.3333 10.6667 53.3333H29.3334V48H10.6667V21.3333L32 34.6666L53.3334 21.3333V37.3333H58.6667V16C58.6667 14.5855 58.1048 13.2289 57.1046 12.2287C56.1044 11.2285 54.7479 10.6666 53.3334 10.6666ZM32 29.3333L10.6667 16H53.3334L32 29.3333Z" fill="#2F8DED"/>
</svg>
